<?xml version="1.0" encoding="UTF-8"?>
<!-- Svg Vector Icons : http://www.onlinewebfonts.com/icon -->
<!DOCTYPE svg PUBLIC "-//W3C//DTD SVG 1.1//EN" "http://www.w3.org/Graphics/SVG/1.1/DTD/svg11.dtd">
<svg version="1.1" xmlns="http://www.w3.org/2000/svg" xmlns:xlink="http://www.w3.org/1999/xlink" x="0px" y="0px" viewBox="0 0 1000 1000" enable-background="new 0 0 1000 1000" xml:space="preserve">
<metadata> Svg Vector Icons : http://www.onlinewebfonts.com/icon </metadata>
<g><g><g><path d="M750.6,354.3V210.1C750.6,99.7,660.8,10,550.5,10v34.7L521,114.9c9.4-2.9,19.1-4.9,29.4-4.9c55.1,0,99.9,45,99.9,100.1v144.2h-99.9V398l40.4,39.5l-106.5,113l56.8,123.8l-38.5,59.8l132.4,54.5l-95.5,75l9.9,96h303.7V354.3H750.6z"/><path d="M401.6,764.4l38.5-59.8l-56.8-123.8l106.5-113l-40.4-39.5v-43.6h-100V240.4c0-44.8,29.8-82.5,70.5-95.1l29.5-70.2V40.3c0,0,0,0,0,0c-110.3,0-200.1,89.7-200.1,200.1v144.2H146.8V990h301.6l-9.9-96l95.4-75L401.6,764.4z"/></g></g><g/><g/><g/><g/><g/><g/><g/><g/><g/><g/><g/><g/><g/><g/><g/></g>
</svg>