<svg height='300px' width='300px'  fill="#000000" xmlns="http://www.w3.org/2000/svg" viewBox="0 0 64 64" x="0px" y="0px"><g><path d="M21,24.935c0,.022,0,.043,0,.065h0V37.053C21,41.435,25.935,45,32,45s11-3.565,11-7.947V25H43c0-.022.005-.043.005-.065C43,20.56,38.065,17,32,17S21,20.56,21,24.935ZM32,35c-4.726,0-8.6-2.421-8.964-5.483A12.657,12.657,0,0,0,32,32.87a12.657,12.657,0,0,0,8.964-3.353C40.6,32.579,36.726,35,32,35Zm8.954-1.348C40.5,36.651,36.657,39,32,39s-8.5-2.349-8.954-5.348A12.652,12.652,0,0,0,32,37,12.652,12.652,0,0,0,40.954,33.652ZM32,43c-4.657,0-8.5-2.349-8.954-5.348A12.652,12.652,0,0,0,32,41a12.652,12.652,0,0,0,8.954-3.348C40.5,40.651,36.657,43,32,43Zm0-24c4.963,0,9,2.662,9,5.935s-4.037,5.935-9,5.935-9-2.663-9-5.935S27.037,19,32,19Zm-5,5.965-2-.03c0-1.421,1.93-3.333,4.8-3.915l.4,1.96C28.165,23.392,27.07,24.582,27,24.965ZM31,62V50.414l-1.293,1.293-1.414-1.414,3-3a1,1,0,0,1,1.414,0l3,3-1.414,1.414L33,50.414V62ZM33,2v9.586l1.293-1.293,1.414,1.414-3,3a1,1,0,0,1-1.414,0l-3-3,1.414-1.414L31,11.586V2ZM43.839,47.92l-1.672-.448,7.675,11.989-1.684,1.078L40.364,48.364l-.5,1.849L37.937,49.7l1.1-4.1a1,1,0,0,1,.466-.608.992.992,0,0,1,.759-.1l4.1,1.1ZM22.991,11.794l1.926.54-1.132,4.039a1,1,0,0,1-.962.73,1.017,1.017,0,0,1-.249-.031L18.51,16.033l.5-1.938,1.731.443L14.142,3.513l1.716-1.026,6.634,11.088ZM50.213,39.868l-1.791.48,13.09,7.793-1.024,1.718L47.454,42.1l.466,1.74-1.932.518-1.1-4.1a1,1,0,0,1,.707-1.225l4.1-1.1ZM12.055,23.132l1.673-.448L2.54,16.888l.92-1.776,11.383,5.9-.495-1.849,1.931-.518,1.1,4.1a1,1,0,0,1-.707,1.225l-4.1,1.1Zm2.1,36.329,7.675-11.989-1.672.448-.517-1.931,4.1-1.1a.994.994,0,0,1,.759.1,1,1,0,0,1,.466.608l1.1,4.1-1.931.517-.5-1.849L15.842,60.539ZM48.142,2.487l1.716,1.026L43.1,14.813l1.736-.465.517,1.931-4.1,1.1a.992.992,0,0,1-.259.035,1,1,0,0,1-.966-.742l-1.1-4.1,1.931-.517.481,1.794ZM2.488,48.141l13.09-7.793-1.791-.48.518-1.932,4.1,1.1a1,1,0,0,1,.707,1.225l-1.1,4.1-1.932-.518.466-1.74L3.512,49.859ZM61.46,16.888l-11.188,5.8,1.673.448-.517,1.932-4.1-1.1a1,1,0,0,1-.707-1.225l1.1-4.1,1.931.518-.5,1.849,11.383-5.9ZM48.414,31H62v2H48.414l1.293,1.293-1.414,1.414-3-3a1,1,0,0,1,0-1.414l3-3,1.414,1.414ZM15.586,33H2V31H15.586l-1.293-1.293,1.414-1.414,3,3a1,1,0,0,1,0,1.414l-3,3-1.414-1.414ZM51,10v1.586l9.293-9.293,1.414,1.414L52.414,13H54v2H50a1,1,0,0,1-1-1V10ZM2.293,60.293,11.586,51H10V49h4a1,1,0,0,1,1,1v4H13V52.414L3.707,61.707ZM13,10h2v4a1,1,0,0,1-1,1H10V13h1.586L2.293,3.707,3.707,2.293,13,11.586ZM52.414,51l9.293,9.293-1.414,1.414L51,52.414V54H49V50a1,1,0,0,1,1-1h4v2ZM38.805,2.741l1.931.518L38.822,10.4l-1.931-.517Zm-15.541,58L25.178,53.6l1.931.517L25.2,61.259Zm1.931-58,1.914,7.144-1.931.517L23.264,3.259Zm11.7,51.374,1.931-.517,1.914,7.143-1.931.518Zm24.368-15.31-.518,1.931L53.6,38.822l.517-1.931ZM2.741,25.2l.518-1.931L10.4,25.178l-.517,1.931ZM53.6,25.178l7.143-1.914.518,1.931-7.144,1.914ZM10.4,38.822,3.259,40.736l-.518-1.931,7.144-1.914Z"></path></g></svg>