<svg height='300px' width='300px'  fill="#000000" xmlns="http://www.w3.org/2000/svg" xmlns:xlink="http://www.w3.org/1999/xlink" version="1.1" x="0px" y="0px" viewBox="0 0 90 90" enable-background="new 0 0 90 90" xml:space="preserve"><path d="M46.227,29.455H27.663v2.579c0.463,0.635,1.079,1.359,1.864,2.279c1.093,1.284,2.443,2.87,3.914,4.934h12.786V29.455z"></path><rect x="57.893" y="16.794" width="18.563" height="9.793"></rect><rect x="48.611" y="29.455" width="18.563" height="9.792"></rect><rect x="57.893" y="42.116" width="18.563" height="9.792"></rect><rect x="78.841" y="16.794" width="9.282" height="9.793"></rect><rect x="78.841" y="42.116" width="9.282" height="9.792"></rect><path d="M55.506,42.116H36.944v2.775c1.341,2.548,2.21,4.896,2.741,7.017h15.821V42.116z"></path><rect x="69.561" y="29.455" width="18.563" height="9.792"></rect><rect x="48.611" y="54.775" width="18.563" height="9.793"></rect><rect x="69.561" y="54.775" width="18.563" height="9.793"></rect><rect x="36.944" y="16.794" width="18.562" height="9.793"></rect><path d="M39.264,63.945c-0.024,0.063-0.05,0.123-0.078,0.185c-0.006,0.013-0.016,0.033-0.025,0.052  c-0.082,0.184-0.148,0.313-0.188,0.387h7.251v-9.791h-5.992C40.833,59.432,39.818,62.629,39.264,63.945z"></path><path d="M23.04,22.346c1.162-0.43,2.468-0.152,3.358,0.712c0.889,0.863,1.203,2.161,0.808,3.336  c-0.022,0.065-0.043,0.129-0.064,0.193h7.417v-9.793H15.996v9.793h1.472C19.263,24.314,21.455,22.931,23.04,22.346z"></path><path d="M33.315,44.979C26.728,33.711,21.313,33.8,24.154,25.366c0,0-7.457,2.752-6.569,12.251c0,0,0.3,2.276-1.271,4.601  c0,0,0.649-5.045-4.056-9.661c0,0,1.953,2.841-1.864,8.079c-3.683,5.054-8.222,6.83-8.483,14.548l-0.034-0.008  c0,0.285,0.008,0.57,0.022,0.854c0,0.009,0,0.016,0,0.023S1.9,56.07,1.9,56.08c0.001,0.021,0.002,0.042,0.003,0.064  c0.004,0.123,0.013,0.248,0.029,0.373c0.687,9.33,8.469,16.688,17.977,16.688c7.12,0,13.274-4.127,16.205-10.118  c0.001-0.001,0.002-0.002,0.003-0.003c0,0,0.051-0.093,0.127-0.266c0.007-0.016,0.015-0.029,0.022-0.047h-0.002  C36.896,61.32,39.085,54.85,33.315,44.979z M14.689,65.248c-5.859-4.171-3.527-10.521,1.424-13.16c7.33-3.906,6.178-7.99,6.178-7.99  s4.293,5.981,5.091,13.47C28.181,65.055,20.549,69.419,14.689,65.248z"></path></svg>