<?xml version="1.0" encoding="UTF-8"?>
<!-- Generator: Adobe Illustrator 23.0.0, SVG Export Plug-In . SVG Version: 6.00 Build 0)  -->
<svg version="1.1" id="Layer_1" xmlns="http://www.w3.org/2000/svg" xmlns:xlink="http://www.w3.org/1999/xlink" x="0px" y="0px" style="enable-background:new 0 0 477.12 95.08;" xml:space="preserve" viewBox="">









<g>
	<g>
		<g>
			<path d="M77.64,20.74L49,3.74c-1.71-1.01-3.62-1.52-5.52-1.52s-3.82,0.51-5.52,1.52l-28.64,17C5.9,22.77,3.8,26.52,3.8,30.58v34     c0,4.06,2.11,7.81,5.52,9.84l28.64,17c1.71,1.01,3.62,1.52,5.52,1.52c1.91,0,3.81-0.51,5.52-1.52l28.64-17     c3.42-2.03,5.52-5.78,5.52-9.84v-34C83.17,26.52,81.06,22.77,77.64,20.74z M55.46,73.83l0.05,2.44c0,0.29-0.19,0.63-0.42,0.75     l-1.45,0.83c-0.23,0.12-0.42-0.03-0.42-0.32l-0.02-2.4c-1.24,0.52-2.49,0.64-3.3,0.32c-0.15-0.06-0.22-0.28-0.16-0.54l0.52-2.21     c0.04-0.17,0.13-0.35,0.26-0.46c0.04-0.04,0.09-0.08,0.14-0.1c0.08-0.04,0.16-0.05,0.23-0.02c0.86,0.29,1.97,0.15,3.03-0.38     c1.35-0.68,2.25-2.06,2.24-3.43c-0.01-1.24-0.68-1.76-2.32-1.77c-2.08,0.01-4.02-0.4-4.05-3.47c-0.03-2.52,1.28-5.14,3.36-6.8     l-0.03-2.47c0-0.3,0.18-0.64,0.42-0.76l1.4-0.89c0.23-0.12,0.42,0.03,0.42,0.33l0.02,2.47c1.03-0.41,1.93-0.52,2.74-0.33     c0.18,0.05,0.25,0.29,0.18,0.57l-0.54,2.19c-0.04,0.17-0.13,0.33-0.25,0.44c-0.05,0.05-0.1,0.08-0.14,0.11     c-0.07,0.04-0.15,0.05-0.21,0.04c-0.37-0.08-1.25-0.28-2.64,0.43c-1.46,0.74-1.96,2-1.96,2.94c0.01,1.12,0.59,1.46,2.57,1.5     c2.65,0.04,3.79,1.2,3.82,3.86C59,69.3,57.6,72.11,55.46,73.83z M70.48,69.72c0,0.23-0.03,0.44-0.22,0.55l-7.24,4.4     c-0.19,0.11-0.34,0.02-0.34-0.21v-1.87c0-0.23,0.14-0.35,0.33-0.46l7.13-4.27c0.19-0.11,0.34-0.02,0.34,0.21V69.72z M75.45,27.91     L48.36,44.64c-3.38,1.98-5.87,4.19-5.87,8.26v33.38c0,2.44,0.98,4.02,2.5,4.48c-0.5,0.09-1,0.15-1.5,0.15     c-1.59,0-3.15-0.43-4.52-1.25l-28.64-17c-2.8-1.66-4.54-4.76-4.54-8.1v-34c0-3.33,1.74-6.43,4.54-8.1l28.64-17     c1.37-0.82,2.94-1.25,4.52-1.25S46.63,4.67,48,5.48l28.64,17c2.36,1.4,3.95,3.83,4.4,6.55C80.09,27,77.95,26.45,75.45,27.91z"/>
		</g>
	</g>
</g>

<g>
	<path d="M11.36,68.64c0.52,0.11,0.86,0.63,0.84,1.29c-0.03,0.87-0.57,1.36-1.47,1.34l-0.48-0.01c-0.84-0.02-1.37-0.58-1.35-1.39   c0.02-0.83,0.59-1.3,1.51-1.27l0.31,0.01l-0.06,2.16l0.13,0c0.58,0.02,0.97-0.32,0.98-0.86c0.01-0.4-0.15-0.7-0.42-0.8L11.36,68.64   z M10.28,70.76l0.05-1.67c-0.61-0.02-0.98,0.28-1,0.79C9.32,70.41,9.67,70.74,10.28,70.76z"/>
	<path d="M9.85,67.05L8,67l0.02-0.52l1.85,0.06L9.85,67.05z M9.89,65.91l-1.85-0.06l0.02-0.53l1.85,0.06L9.89,65.91z"/>
	<path d="M9.96,63.35l-1.85-0.06l0.02-0.52l1.85,0.06L9.96,63.35z M10,62.21l-1.85-0.06l0.02-0.53l1.85,0.06L10,62.21z"/>
	<path d="M9.27,59.69l2.67-0.81l0-0.04l-2.62-0.96l0.02-0.53l3.14,1.25l-0.02,0.55l-3.21,1.07L9.27,59.69z"/>
	<path d="M13.01,54.4l-5.09,1.91l0.01-0.49l5.09-1.91L13.01,54.4z"/>
	<path d="M11.75,52.77c-0.56-0.02-0.88-0.43-0.9-1.16l-0.02-0.87l-0.29-0.01c-0.4-0.01-0.63,0.22-0.64,0.67   c-0.01,0.37,0.14,0.63,0.41,0.72l-0.01,0.49c-0.51-0.07-0.84-0.58-0.82-1.23c0.02-0.75,0.42-1.16,1.08-1.14l2.18,0.06l-0.01,0.47   l-0.48-0.01l0,0.05c0.34,0.16,0.52,0.51,0.5,0.98C12.72,52.4,12.33,52.79,11.75,52.77z M11.59,50.77l-0.37-0.01l0.01,0.82   c0.01,0.45,0.19,0.69,0.52,0.7c0.33,0.01,0.55-0.23,0.56-0.63C12.32,51.15,12.01,50.78,11.59,50.77z"/>
	<path d="M10.41,48.52l-1.85-0.06l0.02-0.52L10.42,48L10.41,48.52z M10.44,47.38l-1.85-0.06L8.6,46.8l1.85,0.06L10.44,47.38z"/>
	<path d="M10.52,44.81l-1.85-0.06l0.02-0.52l1.85,0.06L10.52,44.81z M10.55,43.67L8.7,43.62l0.02-0.53l1.85,0.06L10.55,43.67z"/>
	<path d="M13.45,39.57l-5.09,1.91l0.01-0.49l5.09-1.91L13.45,39.57z"/>
	<path d="M13.1,37.88l-0.41-0.01l0.03-1.09l-3.6-0.11l-0.03,1.08l-0.41-0.01l0.05-1.58l4.01,0.12l0.03-1.05l0.41,0.01L13.1,37.88z"/>
	<path d="M10.85,33.69L9,33.63l0.02-0.52l1.85,0.06L10.85,33.69z M10.88,32.55l-1.85-0.06l0.02-0.53l1.85,0.06L10.88,32.55z"/>
	<path d="M17.07,73.03c-0.37,0.05-0.62,0.35-0.63,0.76c-0.02,0.55,0.35,0.87,1.03,0.89l0.29,0.01c0.68,0.02,1.07-0.28,1.08-0.83   c0.01-0.41-0.21-0.73-0.57-0.8l0.01-0.49c0.64,0.1,1.03,0.59,1,1.3c-0.03,0.86-0.57,1.35-1.48,1.32l-0.42-0.01   c-0.91-0.03-1.43-0.55-1.4-1.41c0.02-0.7,0.43-1.17,1.09-1.23L17.07,73.03z"/>
	<path d="M17.02,69.83c0.23-0.83,0.59-1.17,1.22-1.15c0.7,0.02,1.15,0.53,1.19,1.32l0.33,0.01l-0.01,0.35l-0.33-0.01   c-0.08,0.77-0.55,1.26-1.24,1.29l0.01-0.47c0.42-0.03,0.72-0.35,0.79-0.83l-1.6-0.05l-0.02,0.06c-0.22,0.79-0.6,1.14-1.21,1.12   c-0.66-0.02-1.1-0.51-1.14-1.25l-0.33-0.01l0.01-0.35l0.33,0.01c0.08-0.7,0.54-1.16,1.18-1.17l-0.01,0.46   c-0.39,0.04-0.67,0.31-0.73,0.72l1.52,0.05L17.02,69.83z M15.46,70.23c0.04,0.46,0.3,0.75,0.7,0.76c0.36,0.01,0.57-0.19,0.73-0.72   L15.46,70.23z M19,69.99c-0.04-0.48-0.33-0.81-0.74-0.83c-0.38-0.01-0.61,0.22-0.77,0.78L19,69.99z"/>
	<path d="M19.87,65.78c-0.02,0.71-0.25,0.93-0.98,0.91l-0.66-0.02c-0.45-0.01-0.72,0.24-0.67,0.93l-0.53-0.02   c0.09-0.68-0.16-0.95-0.62-0.97l-0.66-0.02c-0.72-0.02-0.94-0.25-0.92-0.97l0.01-0.4l0.4,0.01l-0.01,0.32   c-0.01,0.44,0.09,0.53,0.6,0.54l0.78,0.02c0.41,0.01,0.67,0.33,0.67,0.92l0.05,0c0.03-0.59,0.31-0.89,0.72-0.88l0.78,0.02   c0.51,0.02,0.61-0.07,0.63-0.51l0.01-0.32l0.4,0.01L19.87,65.78z"/>
	<path d="M17.7,62.39l0.7-1.2l0.37,0.22L18,62.58l1.4,0.01l-0.01,0.42l-1.4-0.08l0.7,1.22l-0.38,0.2l-0.63-1.24l-0.7,1.2l-0.37-0.22   l0.77-1.18l-1.4-0.01l0.01-0.42l1.4,0.08l-0.7-1.22l0.38-0.2L17.7,62.39z"/>
	<path d="M18,60.49c-0.01,0-0.05,0-0.07,0c-0.57-0.02-0.94-0.36-0.93-0.85c0.01-0.28,0.12-0.49,0.39-0.74   c0.22-0.2,0.3-0.32,0.3-0.46c0.01-0.23-0.17-0.37-0.51-0.4l0.01-0.46l0.06,0c0.58,0.02,0.94,0.35,0.93,0.85   c-0.01,0.29-0.12,0.49-0.39,0.74c-0.22,0.2-0.3,0.31-0.3,0.45c-0.01,0.24,0.16,0.38,0.51,0.41L18,60.49z"/>
	<path d="M20.15,56.54l-0.4-0.01l0.01-0.32c0.01-0.44-0.09-0.53-0.6-0.54l-0.78-0.02c-0.41-0.01-0.67-0.33-0.67-0.92l-0.05,0   c-0.03,0.59-0.31,0.89-0.72,0.88l-0.78-0.02c-0.51-0.02-0.61,0.07-0.63,0.51l-0.01,0.32l-0.4-0.01l0.01-0.4   c0.02-0.71,0.25-0.93,0.98-0.91l0.66,0.02c0.45,0.01,0.72-0.24,0.67-0.93l0.53,0.02c-0.09,0.68,0.17,0.95,0.62,0.97l0.66,0.02   c0.72,0.02,0.94,0.25,0.92,0.97L20.15,56.54z"/>
	<path d="M19.93,50.38l-0.01,0.48l-0.56-0.02l0,0.04c0.39,0.18,0.6,0.55,0.59,1.03c-0.02,0.69-0.44,1.05-1.21,1.03l-2.06-0.06   l0.01-0.5l1.94,0.06c0.57,0.02,0.85-0.21,0.87-0.7c0.02-0.52-0.34-0.89-0.88-0.9l-1.87-0.06l0.01-0.5L19.93,50.38z"/>
	<path d="M17.6,48.73l-1.85-0.06l0.02-0.52l1.85,0.06L17.6,48.73z M17.64,47.59l-1.85-0.06l0.02-0.53l1.85,0.06L17.64,47.59z"/>
	<path d="M17.79,43.88c0.23-0.83,0.59-1.17,1.22-1.15c0.7,0.02,1.15,0.53,1.19,1.32l0.33,0.01l-0.01,0.35L20.2,44.4   c-0.08,0.77-0.55,1.26-1.24,1.29l0.01-0.47c0.42-0.03,0.72-0.35,0.79-0.83l-1.6-0.05l-0.02,0.06c-0.22,0.79-0.6,1.14-1.21,1.12   c-0.66-0.02-1.1-0.51-1.14-1.25l-0.33-0.01l0.01-0.35l0.33,0.01c0.08-0.7,0.54-1.16,1.18-1.17l-0.01,0.46   c-0.39,0.04-0.67,0.31-0.73,0.72l1.52,0.05L17.79,43.88z M16.23,44.28c0.04,0.46,0.3,0.75,0.7,0.76c0.36,0.01,0.57-0.19,0.73-0.72   L16.23,44.28z M19.77,44.04c-0.04-0.48-0.33-0.81-0.74-0.83c-0.38-0.01-0.61,0.22-0.77,0.78L19.77,44.04z"/>
	<path d="M20.65,39.83c-0.02,0.71-0.25,0.93-0.98,0.91l-0.66-0.02c-0.45-0.01-0.72,0.24-0.67,0.93l-0.53-0.02   c0.09-0.68-0.16-0.95-0.62-0.97l-0.66-0.02c-0.72-0.02-0.94-0.25-0.92-0.97l0.01-0.4l0.4,0.01l-0.01,0.32   c-0.01,0.44,0.09,0.53,0.6,0.54l0.78,0.02c0.41,0.01,0.67,0.33,0.67,0.92l0.05,0c0.03-0.59,0.31-0.89,0.72-0.88l0.78,0.02   c0.51,0.02,0.61-0.07,0.63-0.51l0.01-0.32l0.4,0.01L20.65,39.83z"/>
	<path d="M18.7,38.32l-0.55-0.02c-1.43-0.04-2.17-0.61-2.14-1.63c0.03-0.97,0.69-1.5,1.84-1.47l0.88,0.03   c0.47,0.01,0.74,0.27,0.73,0.69l-0.02,0.75c-0.01,0.22-0.15,0.35-0.36,0.35l-1.2-0.04c-0.22-0.01-0.35-0.12-0.35-0.29   c0.01-0.17,0.15-0.28,0.37-0.27l1.22,0.04l0.01-0.48c0.01-0.27-0.1-0.37-0.39-0.38l-0.82-0.02c-1-0.03-1.52,0.35-1.54,1.12   c-0.02,0.82,0.54,1.21,1.82,1.25l0.45,0.01c1.3,0.04,1.9-0.35,1.92-1.24c0.01-0.26-0.03-0.54-0.09-0.67l0.35,0.01   c0.06,0.14,0.1,0.43,0.09,0.72C20.88,37.83,20.12,38.37,18.7,38.32z"/>
	<path d="M25.26,82.86c-0.56-0.02-0.88-0.43-0.9-1.16l-0.02-0.87l-0.29-0.01c-0.4-0.01-0.63,0.22-0.64,0.67   c-0.01,0.37,0.14,0.63,0.41,0.72l-0.01,0.49c-0.51-0.07-0.84-0.58-0.82-1.23c0.02-0.75,0.42-1.16,1.08-1.14l2.18,0.06l-0.01,0.47   l-0.48-0.01l0,0.05c0.34,0.16,0.52,0.51,0.5,0.98C26.23,82.48,25.84,82.88,25.26,82.86z M25.1,80.85l-0.37-0.01l0.01,0.82   c0.01,0.45,0.19,0.69,0.52,0.7c0.33,0.01,0.55-0.23,0.56-0.63C25.83,81.24,25.53,80.86,25.1,80.85z"/>
	<path d="M22.05,77.7c0.02-0.71,0.48-1.2,1.1-1.18c0.43,0.01,0.76,0.22,0.99,0.63c0.21,0.36,0.37,0.48,0.68,0.49l0.19,0.01   l-0.02,0.51l-0.27-0.01c-0.39-0.01-0.64-0.19-0.88-0.59c-0.2-0.34-0.38-0.47-0.69-0.48c-0.37-0.01-0.63,0.26-0.64,0.67   c-0.01,0.42,0.23,0.7,0.65,0.75l-0.01,0.49C22.45,78.93,22.03,78.43,22.05,77.7z M25.94,78.3c-0.23-0.01-0.41-0.19-0.4-0.41   s0.2-0.4,0.43-0.39s0.41,0.19,0.4,0.41C26.36,78.13,26.17,78.31,25.94,78.3z"/>
	<path d="M25.33,75.47l0.02-0.51c0.39,0,0.66-0.29,0.67-0.71c0.01-0.48-0.27-0.76-0.79-0.77l-2.55-0.08l-0.04,1.45l-0.46-0.01   l0.06-1.97l3.02,0.09c0.81,0.02,1.28,0.52,1.25,1.3C26.49,75,26.01,75.49,25.33,75.47z"/>
	<path d="M24.17,70.43c-0.59-0.13-0.88-0.54-0.86-1.15c0.01-0.18,0.04-0.35,0.08-0.46l0.56,0.02c-0.06,0.14-0.1,0.35-0.1,0.52   c-0.02,0.7,0.45,1.13,1.26,1.16l1.02,0.03l0.03-0.98l0.4,0.01l-0.06,2.11l-0.4-0.01l0.02-0.64l-2.38-0.07l-0.02,0.71l-0.4-0.01   l0.04-1.19l0.81,0.02L24.17,70.43z"/>
	<path d="M24.03,66.66l2.6,0.7l-0.01,0.49l-4.25,0.6l0.01-0.49l1.7-0.2l1.77-0.2l0-0.03l-2.47-0.67l0.01-0.46l2.5-0.52l0-0.03   l-1.75-0.31l-1.69-0.31l0.01-0.49l4.2,0.85l-0.01,0.49l-2.64,0.55L24.03,66.66z"/>
	<path d="M26.72,64.26l-0.41-0.01l0.03-1.09l-2.35-0.07l-0.03,1.08l-0.41-0.01l0.05-1.57l2.76,0.08l0.03-1.05l0.41,0.01L26.72,64.26   z M22.38,63.24c-0.23-0.01-0.4-0.19-0.39-0.43c0.01-0.23,0.19-0.41,0.42-0.4c0.23,0.01,0.4,0.19,0.4,0.43   C22.8,63.08,22.61,63.25,22.38,63.24z"/>
	<path d="M24.49,59.5l-1.85-0.06l0.02-0.52l1.85,0.06L24.49,59.5z"/>
	<path d="M24.66,55.22c0.23-0.83,0.59-1.17,1.22-1.15c0.7,0.02,1.15,0.53,1.19,1.32l0.33,0.01l-0.01,0.35l-0.33-0.01   c-0.08,0.77-0.55,1.26-1.24,1.29l0.01-0.47c0.42-0.03,0.72-0.35,0.79-0.83l-1.6-0.05L25,55.73c-0.22,0.79-0.6,1.14-1.21,1.12   c-0.66-0.02-1.1-0.51-1.14-1.25l-0.33-0.01l0.01-0.35l0.33,0.01c0.08-0.7,0.54-1.16,1.18-1.17l-0.01,0.46   c-0.39,0.04-0.67,0.31-0.73,0.72l1.52,0.05L24.66,55.22z M23.1,55.62c0.04,0.46,0.3,0.75,0.7,0.76c0.36,0.01,0.57-0.19,0.73-0.72   L23.1,55.62z M26.63,55.37c-0.04-0.48-0.33-0.81-0.74-0.83c-0.38-0.01-0.61,0.22-0.77,0.78L26.63,55.37z"/>
	<path d="M27.51,51.16c-0.02,0.71-0.25,0.93-0.98,0.91l-0.66-0.02c-0.45-0.01-0.72,0.24-0.67,0.93l-0.53-0.02   c0.09-0.68-0.16-0.95-0.62-0.97l-0.66-0.02c-0.72-0.02-0.94-0.25-0.92-0.97l0.01-0.4l0.4,0.01l-0.01,0.32   c-0.01,0.44,0.09,0.53,0.6,0.54l0.78,0.02c0.41,0.01,0.67,0.33,0.67,0.92l0.05,0c0.03-0.59,0.31-0.89,0.72-0.88l0.78,0.02   c0.51,0.02,0.61-0.07,0.63-0.51l0.01-0.32l0.4,0.01L27.51,51.16z"/>
	<path d="M25.56,49.66l-0.55-0.02c-1.43-0.04-2.17-0.61-2.14-1.63c0.03-0.97,0.69-1.5,1.84-1.47l0.88,0.03   c0.47,0.01,0.74,0.27,0.73,0.69l-0.02,0.75c-0.01,0.22-0.15,0.35-0.36,0.35l-1.2-0.04c-0.22-0.01-0.35-0.12-0.35-0.29   c0.01-0.17,0.15-0.28,0.37-0.27l1.22,0.04l0.01-0.48c0.01-0.27-0.1-0.37-0.39-0.38l-0.82-0.02c-1-0.03-1.52,0.35-1.54,1.12   c-0.02,0.82,0.54,1.21,1.82,1.25l0.45,0.01c1.3,0.04,1.9-0.35,1.92-1.24c0.01-0.26-0.03-0.54-0.09-0.67l0.35,0.01   c0.06,0.14,0.1,0.43,0.09,0.72C27.75,49.17,26.99,49.7,25.56,49.66z"/>
	<path d="M24.7,43.46l0.99,0.23l0.02-0.61l0.43,0.1l-0.02,0.61l1.2,0.28l-0.01,0.42l-1.2-0.28l-0.03,0.87l1.2,0.27l-0.01,0.42   l-1.2-0.28l-0.02,0.61l-0.43-0.1l0.02-0.61l-0.99-0.22l-0.02,0.61l-0.43-0.1l0.02-0.61l-1.16-0.27l0.01-0.42l1.16,0.27l0.03-0.86   l-1.16-0.27l0.01-0.42l1.16,0.27l0.02-0.61l0.43,0.1L24.7,43.46z M25.66,44.97l0.03-0.88l-1.01-0.23l-0.03,0.88L25.66,44.97z"/>
	<path d="M27.84,40l-0.05,1.55l-0.4-0.01l0.03-1.06l-4.23-0.13l-0.03,1.06l-0.4-0.01l0.05-1.54"/>
	<path d="M31.13,84.58c-0.37,0.05-0.62,0.35-0.63,0.76c-0.02,0.55,0.35,0.87,1.03,0.89l0.29,0.01c0.68,0.02,1.07-0.28,1.08-0.83   c0.01-0.41-0.21-0.73-0.57-0.8l0.01-0.49c0.64,0.1,1.03,0.59,1,1.3c-0.03,0.86-0.57,1.35-1.48,1.32l-0.42-0.01   c-0.91-0.03-1.43-0.55-1.4-1.41c0.02-0.7,0.43-1.17,1.09-1.23L31.13,84.58z"/>
	<path d="M31.08,81.38c0.23-0.83,0.59-1.17,1.22-1.15c0.7,0.02,1.15,0.53,1.19,1.32l0.33,0.01l-0.01,0.35l-0.33-0.01   c-0.08,0.77-0.55,1.26-1.24,1.29l0.01-0.47c0.42-0.03,0.72-0.35,0.79-0.83l-1.6-0.05l-0.02,0.06c-0.22,0.79-0.6,1.14-1.21,1.12   c-0.66-0.02-1.1-0.51-1.14-1.25l-0.33-0.01l0.01-0.35l0.33,0.01c0.08-0.7,0.54-1.16,1.18-1.17l-0.01,0.46   c-0.39,0.04-0.67,0.31-0.73,0.72l1.52,0.05L31.08,81.38z M29.52,81.78c0.04,0.46,0.3,0.75,0.7,0.76c0.36,0.01,0.57-0.19,0.73-0.72   L29.52,81.78z M33.06,81.54c-0.04-0.48-0.33-0.81-0.74-0.83c-0.38-0.01-0.61,0.22-0.77,0.78L33.06,81.54z"/>
	<path d="M33.94,77.33c-0.02,0.71-0.25,0.93-0.98,0.91l-0.66-0.02c-0.45-0.01-0.72,0.24-0.67,0.93l-0.53-0.02   c0.09-0.68-0.16-0.95-0.62-0.97l-0.66-0.02c-0.72-0.02-0.94-0.25-0.92-0.97l0.01-0.4l0.4,0.01l-0.01,0.32   c-0.01,0.44,0.09,0.53,0.6,0.54l0.78,0.02c0.41,0.01,0.67,0.33,0.67,0.92l0.05,0c0.03-0.59,0.31-0.89,0.72-0.88l0.78,0.02   c0.51,0.02,0.61-0.07,0.63-0.51l0.01-0.32l0.4,0.01L33.94,77.33z"/>
	<path d="M31.76,73.94l0.7-1.2l0.37,0.22l-0.77,1.18l1.4,0.01l-0.01,0.42l-1.4-0.08l0.7,1.22l-0.38,0.2l-0.63-1.24l-0.7,1.2   l-0.37-0.22l0.77-1.18l-1.4-0.01l0.01-0.42l1.4,0.08l-0.7-1.22l0.38-0.2L31.76,73.94z"/>
	<path d="M32.06,72.04c-0.01,0-0.05,0-0.07,0c-0.57-0.02-0.94-0.36-0.93-0.85c0.01-0.28,0.12-0.49,0.39-0.74   c0.22-0.2,0.3-0.32,0.3-0.46c0.01-0.23-0.17-0.37-0.51-0.4l0.01-0.46l0.06,0c0.58,0.02,0.94,0.35,0.93,0.85   c-0.01,0.29-0.12,0.49-0.39,0.74c-0.22,0.2-0.3,0.31-0.3,0.45c-0.01,0.24,0.16,0.38,0.51,0.41L32.06,72.04z"/>
	<path d="M32.17,68.33c-0.01,0-0.05,0-0.07,0c-0.57-0.02-0.94-0.36-0.93-0.85c0.01-0.28,0.12-0.49,0.39-0.74   c0.22-0.2,0.3-0.32,0.3-0.46c0.01-0.23-0.17-0.37-0.51-0.4l0.01-0.46l0.06,0c0.58,0.02,0.94,0.35,0.93,0.85   c-0.01,0.29-0.12,0.49-0.39,0.74c-0.22,0.2-0.3,0.31-0.3,0.45c-0.01,0.24,0.16,0.38,0.51,0.41L32.17,68.33z"/>
	<path d="M34.32,64.38l-0.4-0.01l0.01-0.32c0.01-0.44-0.09-0.53-0.6-0.54l-0.78-0.02c-0.41-0.01-0.67-0.33-0.67-0.92l-0.05,0   c-0.03,0.59-0.31,0.89-0.72,0.88l-0.78-0.02c-0.51-0.02-0.61,0.07-0.63,0.51l-0.01,0.32l-0.4-0.01l0.01-0.4   c0.02-0.71,0.25-0.93,0.98-0.91l0.66,0.02c0.45,0.01,0.72-0.24,0.67-0.93l0.53,0.02c-0.09,0.68,0.17,0.95,0.62,0.97l0.66,0.02   c0.72,0.02,0.94,0.25,0.92,0.97L34.32,64.38z"/>
	<path d="M34.1,58.22l-0.01,0.48l-0.56-0.02l0,0.04c0.39,0.18,0.6,0.55,0.59,1.03c-0.02,0.69-0.44,1.05-1.21,1.03l-2.06-0.06   l0.01-0.5l1.94,0.06c0.57,0.02,0.85-0.21,0.87-0.7c0.02-0.52-0.34-0.89-0.88-0.9l-1.87-0.06l0.01-0.5L34.1,58.22z"/>
	<path d="M31.78,56.57l-1.85-0.06L29.94,56l1.85,0.06L31.78,56.57z M31.81,55.44l-1.85-0.06l0.02-0.53l1.85,0.06L31.81,55.44z"/>
	<path d="M31.97,51.72c0.23-0.83,0.59-1.17,1.22-1.15c0.7,0.02,1.15,0.53,1.19,1.32l0.33,0.01l-0.01,0.35l-0.33-0.01   c-0.08,0.77-0.55,1.26-1.24,1.29l0.01-0.47c0.42-0.03,0.72-0.35,0.79-0.83l-1.6-0.05l-0.02,0.06c-0.22,0.79-0.6,1.14-1.21,1.12   c-0.66-0.02-1.1-0.51-1.14-1.25l-0.33-0.01l0.01-0.35l0.33,0.01c0.08-0.7,0.54-1.16,1.18-1.17l-0.01,0.46   c-0.39,0.04-0.67,0.31-0.73,0.72l1.52,0.05L31.97,51.72z M30.4,52.12c0.04,0.46,0.3,0.75,0.7,0.76c0.36,0.01,0.57-0.19,0.73-0.72   L30.4,52.12z M33.94,51.88c-0.04-0.48-0.33-0.81-0.74-0.83c-0.38-0.01-0.61,0.22-0.77,0.78L33.94,51.88z"/>
	<path d="M34.82,47.67c-0.02,0.71-0.25,0.93-0.98,0.91l-0.66-0.02c-0.45-0.01-0.72,0.24-0.67,0.93l-0.53-0.02   c0.09-0.68-0.16-0.95-0.62-0.97l-0.66-0.02c-0.72-0.02-0.94-0.25-0.92-0.97l0.01-0.4l0.4,0.01l-0.01,0.32   c-0.01,0.44,0.09,0.53,0.6,0.54l0.78,0.02c0.41,0.01,0.67,0.33,0.67,0.92l0.05,0c0.03-0.59,0.31-0.89,0.72-0.88l0.78,0.02   c0.51,0.02,0.61-0.07,0.63-0.51l0.01-0.32l0.4,0.01L34.82,47.67z"/>
	<path d="M32.87,46.17l-0.55-0.02c-1.43-0.04-2.17-0.61-2.14-1.63c0.03-0.97,0.69-1.5,1.84-1.47l0.88,0.03   c0.47,0.01,0.74,0.27,0.73,0.69l-0.02,0.75c-0.01,0.22-0.15,0.35-0.36,0.35l-1.2-0.04c-0.22-0.01-0.35-0.12-0.35-0.29   c0.01-0.17,0.15-0.28,0.37-0.27l1.22,0.04l0.01-0.48c0.01-0.27-0.1-0.37-0.39-0.38l-0.82-0.02c-1-0.03-1.52,0.35-1.54,1.12   c-0.02,0.82,0.54,1.21,1.82,1.25l0.45,0.01c1.3,0.04,1.9-0.35,1.92-1.24c0.01-0.26-0.03-0.54-0.09-0.67L35,43.9   c0.06,0.14,0.1,0.43,0.09,0.72C35.06,45.68,34.3,46.21,32.87,46.17z"/>
	<path d="M40.75,90.55l-0.4-0.01l0.01-0.32c0.01-0.44-0.09-0.53-0.6-0.54l-0.78-0.02c-0.41-0.01-0.67-0.33-0.67-0.92l-0.05,0   c-0.03,0.59-0.31,0.89-0.72,0.88l-0.78-0.02c-0.51-0.02-0.61,0.07-0.63,0.51l0.19,0.12l-0.35-0.14L35.73,90   c0.02-0.71,0.25-0.93,0.98-0.91l0.66,0.02c0.45,0.01,0.72-0.24,0.67-0.93l0.53,0.02c-0.09,0.68,0.17,0.95,0.62,0.97l0.66,0.02   c0.72,0.02,0.94,0.25,0.92,0.97L40.75,90.55z"/>
	<path d="M38.09,86.45l-1.85-0.06l0.02-0.52l1.85,0.06L38.09,86.45z M38.12,85.31l-1.85-0.06l0.02-0.53l1.85,0.06L38.12,85.31z"/>
	<path d="M42.01,82.25l-6.04-0.18l0.01-0.46l6.04,0.18L42.01,82.25z"/>
	<path d="M40.76,76.74l-0.01,0.45l-2.19-0.07c-0.39-0.01-0.59,0.12-0.6,0.39c-0.01,0.28,0.23,0.46,0.63,0.47l2.14,0.06l-0.01,0.45   l-2.2-0.07c-0.38-0.01-0.59,0.12-0.6,0.39c-0.01,0.28,0.23,0.46,0.62,0.48l2.14,0.06l-0.01,0.45l-3.18-0.09l0.01-0.45l0.45,0.01   l0-0.05c-0.32-0.09-0.5-0.32-0.49-0.62c0.01-0.3,0.2-0.5,0.51-0.56l0-0.05c-0.3-0.09-0.49-0.35-0.48-0.67   c0.01-0.44,0.33-0.66,0.92-0.65L40.76,76.74z"/>
	<path d="M41.24,73.79l-5.09,1.91l0.01-0.49l5.09-1.91L41.24,73.79z"/>
	<path d="M40.47,70.09c0.35,0.17,0.52,0.51,0.51,0.97c-0.02,0.74-0.57,1.2-1.38,1.18L39,72.22c-0.81-0.02-1.33-0.52-1.31-1.26   c0.01-0.46,0.22-0.79,0.57-0.92l0-0.05l-1.74-0.05l0.02-0.51l4.42,0.13l-0.01,0.49l-0.49-0.01L40.47,70.09z M39.54,71.73   c0.59,0.02,0.97-0.31,0.99-0.83c0.02-0.52-0.35-0.87-0.94-0.89L39.13,70c-0.59-0.02-0.97,0.31-0.99,0.83   c-0.02,0.52,0.35,0.87,0.93,0.89L39.54,71.73z"/>
	<path d="M39.87,68.54l0.01-0.5c0.44-0.03,0.76-0.4,0.77-0.9c0.02-0.54-0.36-0.92-0.93-0.94c-0.58-0.02-0.98,0.34-1,0.88   c-0.01,0.38,0.15,0.7,0.45,0.87l-0.01,0.49l-2.38-0.28l0.07-2.31l0.47,0.01l-0.06,1.9l1.38,0.16l0-0.05   c-0.25-0.22-0.37-0.52-0.36-0.89c0.02-0.78,0.62-1.31,1.45-1.28c0.86,0.03,1.42,0.63,1.39,1.48C41.1,67.98,40.6,68.52,39.87,68.54z   "/>
	<path d="M37.91,63.34c0.02-0.66,0.36-1.1,0.9-1.14l-0.01,0.48c-0.28,0.05-0.46,0.31-0.47,0.68c-0.01,0.4,0.17,0.67,0.46,0.68   c0.24,0.01,0.39-0.15,0.49-0.55l0.12-0.44c0.16-0.61,0.44-0.89,0.9-0.87c0.59,0.02,0.95,0.52,0.93,1.27   c-0.02,0.72-0.37,1.19-0.92,1.23l0.02-0.51c0.3-0.06,0.47-0.34,0.49-0.75c0.01-0.43-0.18-0.71-0.48-0.72   c-0.25-0.01-0.39,0.14-0.49,0.55L39.7,63.7c-0.15,0.57-0.45,0.85-0.9,0.83C38.25,64.52,37.89,64.04,37.91,63.34z"/>
	<path d="M38.88,59.93l-1.85-0.06l0.02-0.52l1.85,0.06L38.88,59.93z"/>
	<path d="M38.99,56.22l-1.85-0.06l0.02-0.52L39,55.7L38.99,56.22z"/>
	<path d="M41.52,51.02l-0.01,0.48l-0.56-0.02l0,0.04c0.39,0.18,0.6,0.55,0.59,1.03c-0.02,0.69-0.44,1.05-1.21,1.03l-2.06-0.06   l0.01-0.5l1.94,0.06c0.57,0.02,0.85-0.21,0.87-0.7c0.02-0.52-0.34-0.89-0.88-0.9l-1.87-0.06l0.01-0.5L41.52,51.02z"/>
	<path d="M12.19,28.31l-0.21-0.34l0.27-0.17c0.37-0.23,0.39-0.36,0.12-0.8l-0.41-0.66c-0.22-0.35-0.1-0.74,0.4-1.07l-0.02-0.04   c-0.51,0.3-0.92,0.23-1.13-0.12l-0.41-0.66c-0.27-0.43-0.39-0.48-0.77-0.24l-0.27,0.17l-0.21-0.34l0.34-0.21   c0.61-0.38,0.92-0.3,1.3,0.31l0.35,0.56c0.24,0.39,0.6,0.47,1.15,0.05l0.28,0.45c-0.62,0.3-0.7,0.66-0.47,1.05l0.35,0.56   c0.38,0.62,0.31,0.93-0.3,1.3L12.19,28.31z"/>
	<path d="M14.15,23.83l-0.98-1.57l0.44-0.27l0.98,1.57L14.15,23.83z M15.12,23.23l-0.98-1.57l0.45-0.28l0.98,1.57L15.12,23.23z"/>
	<path d="M17.3,21.88l-0.98-1.57l0.44-0.27l0.98,1.57L17.3,21.88z M18.27,21.28l-0.98-1.57l0.45-0.28L18.72,21L18.27,21.28z"/>
	<path d="M21.45,19.36c0.82-0.27,1.3-0.15,1.63,0.38c0.37,0.59,0.19,1.26-0.44,1.72l0.17,0.28l-0.3,0.18l-0.17-0.28   c-0.69,0.36-1.36,0.24-1.76-0.33l0.4-0.25c0.26,0.33,0.69,0.4,1.13,0.2l-0.85-1.36l-0.06,0.02c-0.78,0.25-1.28,0.13-1.6-0.39   c-0.35-0.56-0.18-1.19,0.42-1.64l-0.17-0.28l0.3-0.18l0.17,0.28c0.63-0.32,1.26-0.19,1.63,0.34l-0.39,0.24   c-0.25-0.31-0.62-0.38-1.01-0.21l0.8,1.29L21.45,19.36z M20.26,18.28c-0.36,0.29-0.46,0.66-0.25,1c0.19,0.31,0.48,0.37,1,0.22   L20.26,18.28z M22.41,21.09c0.38-0.3,0.5-0.72,0.28-1.08c-0.2-0.33-0.52-0.39-1.08-0.21L22.41,21.09z"/>
	<path d="M26.41,19.5c-0.61,0.38-0.92,0.3-1.3-0.31l-0.35-0.56c-0.24-0.38-0.6-0.47-1.15-0.05l-0.28-0.45   c0.62-0.3,0.71-0.66,0.47-1.05l-0.35-0.56c-0.38-0.62-0.31-0.93,0.3-1.3l0.34-0.21l0.21,0.34l-0.27,0.17   c-0.37,0.23-0.39,0.36-0.12,0.8l0.41,0.66c0.22,0.35,0.1,0.74-0.4,1.07l0.02,0.04c0.51-0.3,0.92-0.23,1.13,0.11l0.41,0.66   c0.27,0.43,0.39,0.48,0.77,0.24l0.27-0.17l0.21,0.34L26.41,19.5z"/>
	<path d="M26.58,17.05l-0.29-0.47c-0.75-1.21-0.69-2.14,0.18-2.68c0.83-0.51,1.63-0.26,2.24,0.73l0.46,0.74   c0.25,0.4,0.19,0.77-0.17,0.99l-0.63,0.39c-0.19,0.12-0.38,0.07-0.49-0.11l-0.63-1.02c-0.12-0.19-0.09-0.36,0.05-0.45   c0.14-0.09,0.31-0.03,0.43,0.16l0.64,1.03l0.41-0.25c0.23-0.14,0.26-0.29,0.1-0.54l-0.43-0.7c-0.53-0.85-1.13-1.07-1.79-0.67   c-0.7,0.43-0.71,1.12-0.04,2.21l0.24,0.39c0.68,1.1,1.34,1.39,2.1,0.92c0.22-0.14,0.44-0.32,0.51-0.44l0.18,0.29   c-0.08,0.13-0.31,0.32-0.55,0.48C28.2,18.6,27.34,18.26,26.58,17.05z"/>
	<path d="M28.66,14l-0.16-0.26c-0.29-0.46-0.2-0.92,0.21-1.18c0.42-0.26,0.87-0.13,1.16,0.33l0.16,0.26   c0.29,0.47,0.21,0.93-0.21,1.19C29.4,14.6,28.95,14.47,28.66,14z M31.45,11.46l-1.16,5.16l-0.24-0.39l1.16-5.16L31.45,11.46z    M29.68,13.3l-0.1-0.16c-0.2-0.33-0.43-0.42-0.67-0.28c-0.23,0.15-0.25,0.39-0.05,0.72l0.1,0.16c0.2,0.33,0.43,0.42,0.67,0.28   C29.86,13.88,29.88,13.63,29.68,13.3z M31.63,14.8l-0.16-0.26c-0.29-0.46-0.21-0.92,0.21-1.18c0.42-0.26,0.87-0.13,1.16,0.33   L33,13.95c0.29,0.47,0.21,0.93-0.21,1.19C32.36,15.4,31.92,15.27,31.63,14.8z M32.64,14.1l-0.1-0.16c-0.2-0.33-0.43-0.42-0.67-0.28   c-0.24,0.15-0.25,0.39-0.05,0.72l0.1,0.16c0.2,0.33,0.43,0.42,0.67,0.28C32.83,14.68,32.85,14.43,32.64,14.1z"/>
	<path d="M31.82,12.04l-0.16-0.26c-0.29-0.46-0.2-0.92,0.21-1.18c0.42-0.26,0.87-0.13,1.16,0.33l0.16,0.26   c0.29,0.47,0.21,0.93-0.21,1.19C32.55,12.64,32.11,12.51,31.82,12.04z M34.61,9.51l-1.16,5.16l-0.24-0.39l1.16-5.16L34.61,9.51z    M32.83,11.35l-0.1-0.16c-0.2-0.33-0.43-0.42-0.67-0.28c-0.23,0.15-0.25,0.39-0.05,0.72l0.1,0.16c0.2,0.33,0.43,0.42,0.67,0.28   C33.02,11.92,33.03,11.67,32.83,11.35z M34.78,12.84l-0.16-0.26c-0.29-0.46-0.21-0.92,0.21-1.18c0.42-0.26,0.87-0.13,1.16,0.33   L36.15,12c0.29,0.47,0.21,0.93-0.21,1.19C35.52,13.45,35.07,13.31,34.78,12.84z M35.8,12.15l-0.1-0.16   c-0.2-0.33-0.43-0.42-0.67-0.28c-0.24,0.15-0.25,0.39-0.05,0.72l0.1,0.16c0.2,0.33,0.43,0.42,0.67,0.28   C35.98,12.73,36,12.48,35.8,12.15z"/>
	<path d="M37.23,12.32l-0.24-0.39l0.73-0.45l-1.74-2.81l-0.73,0.45L35,8.73l1.89-1.17l0.24,0.39L36.41,8.4l1.74,2.81l0.73-0.45   l0.24,0.39L37.23,12.32z"/>
	<path d="M42.44,8.55l0.24,0.39l-2.5,1.55l-0.24-0.39L41,9.45l-1.68-2.71l-0.04,0.02l-0.62,1.3L38.37,7.6l0.64-1.36l0.43-0.27   l1.99,3.21L42.44,8.55z"/>
	<path d="M42.36,4.16c0.7-0.43,1.44-0.26,1.87,0.44c0.43,0.69,0.25,1.44-0.45,1.87l-0.74,0.46l0.8,1.29L43.39,8.5L41.17,4.9   L42.36,4.16z M42.79,6.54l0.64-0.4c0.52-0.32,0.65-0.78,0.35-1.27c-0.3-0.49-0.77-0.58-1.29-0.26l-0.64,0.4L42.79,6.54z"/>
	<path d="M21.2,30.73l-0.38,0.24l-1.16-1.86c-0.2-0.33-0.43-0.43-0.66-0.29c-0.24,0.15-0.25,0.44-0.04,0.78l1.13,1.82l-0.38,0.23   l-1.16-1.87c-0.2-0.33-0.43-0.42-0.66-0.28c-0.24,0.15-0.26,0.45-0.05,0.78l1.13,1.82l-0.38,0.24l-1.67-2.7l0.38-0.23l0.24,0.38   l0.04-0.03c-0.1-0.31-0.01-0.59,0.25-0.75s0.53-0.11,0.75,0.12l0.04-0.03c-0.09-0.3,0.02-0.6,0.3-0.77   c0.38-0.23,0.73-0.09,1.05,0.41L21.2,30.73z"/>
	<path d="M22.09,27.44c0.82-0.27,1.3-0.15,1.63,0.38c0.37,0.59,0.19,1.26-0.44,1.72l0.17,0.28L23.16,30l-0.17-0.28   c-0.69,0.36-1.36,0.24-1.76-0.33l0.4-0.25c0.26,0.33,0.69,0.4,1.13,0.2l-0.85-1.36l-0.06,0.02c-0.78,0.25-1.28,0.13-1.6-0.39   c-0.35-0.56-0.18-1.19,0.42-1.64l-0.17-0.28l0.3-0.18l0.17,0.28c0.63-0.32,1.26-0.19,1.63,0.34l-0.39,0.24   c-0.25-0.31-0.62-0.38-1.01-0.21l0.8,1.29L22.09,27.44z M20.9,26.35c-0.36,0.29-0.46,0.66-0.25,1c0.19,0.31,0.48,0.37,1,0.22   L20.9,26.35z M23.05,29.17c0.38-0.3,0.5-0.72,0.28-1.08c-0.2-0.33-0.52-0.39-1.08-0.21L23.05,29.17z"/>
	<path d="M27.05,27.58c-0.61,0.38-0.92,0.3-1.3-0.31l-0.35-0.56c-0.24-0.38-0.6-0.47-1.15-0.05l-0.28-0.45   c0.62-0.3,0.71-0.66,0.47-1.05L24.1,24.6c-0.38-0.62-0.31-0.93,0.3-1.3l0.34-0.21l0.21,0.34l-0.27,0.17   c-0.37,0.23-0.39,0.36-0.12,0.8l0.41,0.66c0.22,0.35,0.1,0.74-0.4,1.07l0.02,0.04c0.51-0.3,0.92-0.23,1.13,0.11l0.41,0.66   c0.27,0.43,0.39,0.48,0.77,0.24l0.27-0.17l0.21,0.34L27.05,27.58z"/>
	<path d="M27.23,25.12l-0.29-0.47c-0.75-1.21-0.69-2.14,0.18-2.68c0.83-0.51,1.63-0.26,2.24,0.73l0.46,0.74   c0.25,0.4,0.19,0.77-0.17,0.99l-0.63,0.39c-0.19,0.12-0.38,0.07-0.49-0.11l-0.63-1.02c-0.12-0.19-0.09-0.36,0.05-0.45   c0.14-0.09,0.31-0.03,0.43,0.16l0.64,1.03l0.41-0.25c0.23-0.14,0.26-0.29,0.1-0.54l-0.43-0.7c-0.53-0.85-1.13-1.07-1.79-0.67   c-0.7,0.43-0.71,1.12-0.04,2.21l0.24,0.39c0.68,1.1,1.34,1.39,2.1,0.92c0.22-0.14,0.44-0.32,0.51-0.44l0.18,0.29   c-0.08,0.13-0.31,0.32-0.55,0.48C28.84,26.67,27.98,26.33,27.23,25.12z"/>
	<path d="M29.31,22.07l-0.16-0.26c-0.29-0.46-0.2-0.92,0.21-1.18c0.42-0.26,0.87-0.13,1.16,0.33l0.16,0.26   c0.29,0.47,0.21,0.93-0.21,1.19C30.04,22.67,29.6,22.54,29.31,22.07z M32.1,19.53l-1.16,5.16l-0.24-0.39l1.16-5.16L32.1,19.53z    M30.32,21.38l-0.1-0.16c-0.2-0.33-0.43-0.42-0.67-0.28c-0.23,0.15-0.25,0.39-0.05,0.72l0.1,0.16c0.2,0.33,0.43,0.42,0.67,0.28   C30.51,21.95,30.52,21.7,30.32,21.38z M32.27,22.87l-0.16-0.26c-0.29-0.46-0.21-0.92,0.21-1.18c0.42-0.26,0.87-0.13,1.16,0.33   l0.16,0.26c0.29,0.47,0.21,0.93-0.21,1.19C33.01,23.48,32.56,23.34,32.27,22.87z M33.28,22.18l-0.1-0.16   c-0.2-0.33-0.43-0.42-0.67-0.28c-0.24,0.15-0.25,0.39-0.05,0.72l0.1,0.16c0.2,0.33,0.43,0.42,0.67,0.28   C33.47,22.76,33.49,22.5,33.28,22.18z"/>
	<path d="M34.47,22.5l-2.23-3.59l0.42-0.26l3.27,1.84l0.03-0.02l-1.73-2.8l0.4-0.25l2.23,3.59l-0.42,0.26l-3.28-1.85l-0.03,0.02   l1.74,2.8L34.47,22.5z"/>
	<path d="M38.15,18.78l-0.04,1.46l-0.47,0.29l0.09-1.93l-1.77-0.77l0.5-0.31l1.31,0.61l0.03-0.02l0.04-1.44l0.48-0.29l-0.1,1.9   l1.78,0.79l-0.49,0.3l-1.33-0.62L38.15,18.78z"/>
	<path d="M42.52,19.18l-3.18-5.14l0.39-0.24l3.18,5.14L42.52,19.18z"/>
	<path d="M46,15.83l-4.4-3.19l0.42-0.26l4.4,3.19L46,15.83z"/>
	<path d="M46.37,10.65l-1.18-0.43l0.52-0.32l1.12,0.48L46.37,10.65z"/>
	<path d="M52.54,11.87l-0.57-0.27c-0.12,0.18-0.29,0.34-0.5,0.47c-0.82,0.51-1.68,0.23-2.3-0.76l-0.36-0.58   c-0.62-0.99-0.48-1.89,0.34-2.4c0.82-0.51,1.68-0.23,2.3,0.76l0.36,0.58c0.34,0.55,0.45,1.06,0.35,1.5l0.86,0.41L52.54,11.87z    M49.61,11.03c0.47,0.75,1.06,0.97,1.61,0.63c0.13-0.08,0.23-0.17,0.3-0.28l-0.95-0.45l0.47-0.29l0.64,0.3   c0.02-0.29-0.08-0.63-0.31-1l-0.35-0.57c-0.47-0.76-1.06-0.97-1.61-0.63s-0.62,0.97-0.15,1.72L49.61,11.03z"/>
	<path d="M53.81,10.98l-0.21-0.34l0.27-0.17c0.37-0.23,0.39-0.36,0.12-0.8l-0.41-0.66c-0.22-0.35-0.1-0.74,0.4-1.07L53.96,7.9   c-0.51,0.3-0.92,0.23-1.13-0.12l-0.41-0.66c-0.27-0.43-0.39-0.48-0.77-0.24l-0.27,0.17L51.16,6.7L51.5,6.5   c0.61-0.38,0.92-0.3,1.3,0.31l0.35,0.56c0.24,0.39,0.6,0.47,1.15,0.05l0.28,0.45c-0.62,0.3-0.7,0.66-0.47,1.05l0.35,0.56   c0.38,0.62,0.31,0.93-0.3,1.3L53.81,10.98z"/>
	<path d="M21.74,36.07l-0.98-1.57l0.44-0.27l0.98,1.57L21.74,36.07z M22.71,35.47l-0.98-1.57l0.45-0.28l0.98,1.57L22.71,35.47z"/>
	<path d="M24.2,31.89c0.84,0.26,1.55,0.83,2.08,1.68c0.52,0.85,0.72,1.74,0.58,2.61l-0.42,0.26c0.07-1.04-0.11-1.81-0.6-2.6   c-0.48-0.78-1.1-1.28-2.06-1.69L24.2,31.89z"/>
	<path d="M28.04,32.16l-0.98-1.57l0.44-0.27l0.98,1.57L28.04,32.16z M29.01,31.56l-0.98-1.57l0.45-0.28l0.98,1.57L29.01,31.56z"/>
	<path d="M33.09,32.97L32.31,31l0.57-0.36l0.65,2.05L33.09,32.97z M31.24,29.71c-0.16-0.25-0.08-0.59,0.17-0.74s0.58-0.07,0.74,0.18   c0.16,0.25,0.08,0.59-0.17,0.74S31.39,29.96,31.24,29.71z"/>
	<path d="M36.51,27.49l0.31,0.5c0.43,0.69,0.3,1.4-0.32,1.78c-0.39,0.24-0.78,0.25-1.08,0.03l-0.05,0.03l0.82,1.33l-0.43,0.27   l-2.24-3.61l0.42-0.26l0.26,0.41l0.04-0.03c-0.04-0.39,0.14-0.72,0.53-0.96C35.39,26.6,36.08,26.8,36.51,27.49z M34.66,28.72   l0.24,0.39c0.31,0.5,0.79,0.64,1.24,0.37c0.45-0.28,0.53-0.77,0.22-1.27l-0.24-0.39c-0.31-0.5-0.79-0.64-1.24-0.36   C34.44,27.73,34.36,28.22,34.66,28.72z"/>
	<path d="M38.5,25.74c0.82-0.27,1.3-0.15,1.63,0.38c0.37,0.59,0.19,1.26-0.44,1.72l0.17,0.28l-0.3,0.18l-0.17-0.28   c-0.69,0.36-1.36,0.24-1.76-0.33l0.4-0.25c0.26,0.33,0.69,0.4,1.13,0.2l-0.85-1.36l-0.06,0.02c-0.78,0.25-1.28,0.13-1.6-0.39   c-0.35-0.56-0.18-1.19,0.42-1.64l-0.17-0.28l0.3-0.18l0.17,0.28c0.63-0.32,1.26-0.19,1.63,0.34l-0.39,0.24   c-0.25-0.31-0.62-0.38-1.01-0.21l0.8,1.29L38.5,25.74z M37.3,24.65c-0.36,0.29-0.46,0.66-0.25,1c0.19,0.31,0.48,0.37,1,0.22   L37.3,24.65z M39.46,27.47c0.38-0.3,0.5-0.72,0.28-1.08c-0.2-0.33-0.52-0.39-1.08-0.21L39.46,27.47z"/>
	<path d="M43.45,25.88c-0.61,0.38-0.92,0.3-1.3-0.31l-0.35-0.56c-0.24-0.38-0.6-0.47-1.15-0.05l-0.28-0.45   c0.62-0.3,0.71-0.66,0.47-1.05L40.5,22.9c-0.38-0.62-0.31-0.93,0.3-1.3l0.34-0.21l0.21,0.34l-0.27,0.17   c-0.37,0.23-0.39,0.36-0.12,0.8l0.41,0.66c0.22,0.35,0.1,0.74-0.4,1.07l0.02,0.04c0.51-0.3,0.92-0.23,1.13,0.11l0.41,0.66   c0.27,0.43,0.39,0.48,0.77,0.24l0.27-0.17l0.21,0.34L43.45,25.88z"/>
	<path d="M45.08,22.19l1.39-0.08l0.02,0.43l-1.41,0.01l0.77,1.17l-0.35,0.22l-0.71-1.21l-0.63,1.26l-0.38-0.21l0.69-1.21l-1.39,0.08   l-0.02-0.43l1.41,0l-0.77-1.17l0.35-0.22l0.71,1.21l0.63-1.26l0.38,0.21L45.08,22.19z"/>
	<path d="M48.04,23.03l-0.9-5.36l0.42-0.26l0.9,5.36L48.04,23.03z"/>
	<path d="M51.11,17.92c0.82-0.27,1.3-0.15,1.63,0.38c0.37,0.59,0.19,1.26-0.44,1.72l0.17,0.28l-0.3,0.18L52,20.21   c-0.69,0.36-1.36,0.24-1.76-0.33l0.4-0.25c0.26,0.33,0.69,0.4,1.13,0.2l-0.85-1.36l-0.06,0.02c-0.78,0.25-1.28,0.13-1.6-0.39   c-0.35-0.56-0.18-1.19,0.42-1.64l-0.17-0.28l0.3-0.18l0.17,0.28c0.63-0.32,1.26-0.19,1.63,0.34l-0.39,0.24   c-0.25-0.31-0.62-0.38-1.01-0.21l0.8,1.29L51.11,17.92z M49.91,16.84c-0.36,0.29-0.46,0.66-0.25,1c0.19,0.31,0.48,0.37,1,0.22   L49.91,16.84z M52.07,19.65c0.38-0.3,0.5-0.72,0.28-1.08c-0.2-0.33-0.52-0.39-1.08-0.21L52.07,19.65z"/>
	<path d="M55.43,15.76l0.31,0.5c0.43,0.69,0.3,1.4-0.32,1.78c-0.39,0.24-0.78,0.25-1.08,0.03l-0.05,0.03l0.82,1.33l-0.43,0.27   l-2.24-3.61l0.42-0.26l0.26,0.41l0.04-0.03c-0.04-0.39,0.14-0.72,0.53-0.96C54.31,14.87,55,15.07,55.43,15.76z M53.58,16.99   l0.24,0.39c0.31,0.5,0.79,0.64,1.24,0.37c0.45-0.28,0.53-0.77,0.22-1.27l-0.24-0.39c-0.31-0.5-0.79-0.64-1.24-0.36   C53.36,16,53.27,16.49,53.58,16.99z"/>
	<path d="M58.15,16.29l-0.92-1.48l-2.51-1.37l0.49-0.3l1.93,1.08l0.03-0.02l-0.11-2.21l0.49-0.3l0.11,2.85l0.92,1.48L58.15,16.29z"/>
	<path d="M58.99,13.06l-0.25-0.41l2.36-1.46l0.53,0.24L58.99,13.06z M59.7,14.2l-0.25-0.41l2.63-1.63l0.25,0.41L59.7,14.2z"/>
	<path d="M33.73,41.06l-0.78-1.98l0.57-0.36l0.65,2.06L33.73,41.06z"/>
	<path d="M36.18,38.85l-0.21-0.34l0.27-0.17c0.37-0.23,0.39-0.36,0.12-0.8l-0.41-0.66c-0.22-0.35-0.1-0.74,0.4-1.07l-0.02-0.04   c-0.51,0.3-0.92,0.23-1.13-0.12L34.79,35c-0.27-0.43-0.39-0.48-0.77-0.24l-0.27,0.17l-0.21-0.34l0.34-0.21   c0.61-0.38,0.92-0.3,1.3,0.31l0.35,0.56c0.24,0.39,0.6,0.47,1.15,0.05l0.28,0.45c-0.62,0.3-0.7,0.66-0.47,1.05l0.35,0.56   c0.38,0.62,0.31,0.93-0.3,1.3L36.18,38.85z"/>
	<path d="M40.65,37.28l-3.18-5.14l0.39-0.24l3.18,5.14L40.65,37.28z"/>
	<path d="M44.13,33.93l-4.4-3.19l0.42-0.26l4.4,3.19L44.13,33.93z"/>
	<path d="M47.7,31.24l-0.38,0.24l-1.16-1.86c-0.2-0.33-0.43-0.43-0.66-0.29c-0.24,0.15-0.25,0.44-0.04,0.78l1.13,1.82l-0.38,0.23   l-1.16-1.87c-0.2-0.33-0.43-0.42-0.66-0.28c-0.24,0.15-0.26,0.45-0.05,0.78l1.13,1.82l-0.38,0.24l-1.67-2.7l0.38-0.23l0.24,0.38   l0.04-0.03c-0.1-0.31-0.01-0.59,0.25-0.75c0.25-0.16,0.53-0.11,0.75,0.12l0.04-0.03c-0.09-0.3,0.02-0.6,0.3-0.77   c0.38-0.23,0.73-0.09,1.05,0.41L47.7,31.24z"/>
	<path d="M49.94,29.28c0.05,0.39-0.14,0.72-0.53,0.96c-0.62,0.39-1.31,0.19-1.74-0.5l-0.31-0.5c-0.43-0.69-0.3-1.4,0.32-1.78   c0.39-0.24,0.78-0.25,1.08-0.03l0.04-0.03l-0.92-1.48l0.43-0.27l2.33,3.76l-0.42,0.26l-0.26-0.41L49.94,29.28z M48.06,29.41   c0.31,0.5,0.79,0.64,1.24,0.37c0.44-0.27,0.53-0.77,0.22-1.27l-0.24-0.39c-0.31-0.5-0.79-0.64-1.24-0.36   c-0.45,0.28-0.53,0.77-0.23,1.27L48.06,29.41z"/>
	<path d="M51.23,26.26l-0.98-1.57l0.45-0.28l0.98,1.57L51.23,26.26z"/>
	<path d="M54.38,24.3l-0.98-1.57l0.45-0.28l0.98,1.57L54.38,24.3z"/>
	<path d="M58.05,22.08c0.82-0.27,1.3-0.15,1.63,0.38c0.37,0.59,0.19,1.26-0.44,1.72l0.17,0.28l-0.3,0.18l-0.17-0.28   c-0.69,0.36-1.36,0.24-1.76-0.33l0.4-0.25c0.26,0.33,0.69,0.4,1.13,0.2l-0.85-1.36l-0.06,0.02c-0.78,0.25-1.28,0.13-1.6-0.39   c-0.35-0.56-0.18-1.19,0.42-1.64l-0.17-0.28l0.3-0.18l0.17,0.28c0.63-0.32,1.26-0.19,1.63,0.34l-0.39,0.24   c-0.25-0.31-0.62-0.38-1.01-0.21l0.8,1.29L58.05,22.08z M56.86,21c-0.36,0.29-0.46,0.66-0.25,1c0.19,0.31,0.48,0.37,1,0.22   L56.86,21z M59.01,23.82c0.38-0.3,0.5-0.72,0.28-1.08c-0.2-0.33-0.52-0.39-1.08-0.21L59.01,23.82z"/>
	<path d="M63.01,22.22c-0.61,0.38-0.92,0.3-1.3-0.31l-0.35-0.56c-0.24-0.38-0.6-0.47-1.15-0.05l-0.28-0.45   c0.62-0.3,0.71-0.66,0.47-1.05l-0.35-0.56c-0.38-0.62-0.31-0.93,0.3-1.3l0.34-0.21l0.21,0.34l-0.27,0.17   c-0.37,0.23-0.39,0.36-0.12,0.8l0.41,0.66c0.22,0.35,0.1,0.74-0.4,1.07l0.02,0.04c0.51-0.3,0.92-0.23,1.13,0.11l0.41,0.66   c0.27,0.43,0.39,0.48,0.77,0.24l0.27-0.17l0.21,0.34L63.01,22.22z"/>
	<path d="M64.63,18.54l1.39-0.08l0.02,0.43l-1.41,0.01l0.77,1.17l-0.35,0.22l-0.71-1.21l-0.63,1.26l-0.38-0.21l0.69-1.21l-1.39,0.08   l-0.02-0.43l1.41,0l-0.77-1.17l0.35-0.22l0.71,1.21l0.63-1.26l0.38,0.21L64.63,18.54z"/>
	<path d="M66.38,17.74c-0.01-0.01-0.03-0.04-0.04-0.06c-0.3-0.49-0.22-0.99,0.2-1.25c0.24-0.15,0.47-0.17,0.83-0.09   c0.28,0.08,0.43,0.08,0.55,0c0.19-0.12,0.21-0.35,0.05-0.65l0.39-0.24l0.03,0.05c0.3,0.49,0.23,0.98-0.19,1.24   c-0.24,0.15-0.48,0.18-0.83,0.09c-0.29-0.08-0.43-0.08-0.54-0.01c-0.21,0.13-0.23,0.35-0.06,0.66L66.38,17.74z"/>
	<path d="M36.53,46.64l-0.22-0.35l0.93-0.57l-1.24-2l-0.92,0.57l-0.22-0.35l1.34-0.83l1.46,2.35l0.89-0.55l0.22,0.35L36.53,46.64z    M34.98,42.46c-0.12-0.2-0.06-0.44,0.14-0.56c0.2-0.12,0.44-0.07,0.57,0.13c0.12,0.2,0.06,0.44-0.13,0.57   C35.35,42.72,35.1,42.66,34.98,42.46z"/>
	<path d="M39.78,41.88c0.82-0.27,1.3-0.15,1.63,0.38c0.37,0.59,0.19,1.26-0.44,1.72l0.17,0.28l-0.3,0.18l-0.17-0.28   c-0.69,0.36-1.36,0.24-1.76-0.33l0.4-0.25c0.26,0.33,0.69,0.4,1.13,0.2l-0.85-1.36l-0.06,0.02c-0.78,0.25-1.28,0.13-1.6-0.39   c-0.35-0.56-0.18-1.19,0.42-1.64l-0.17-0.28l0.3-0.18l0.17,0.28c0.63-0.32,1.26-0.19,1.63,0.34l-0.39,0.24   c-0.25-0.31-0.62-0.38-1.01-0.21l0.8,1.29L39.78,41.88z M38.58,40.8c-0.36,0.29-0.46,0.66-0.25,1c0.19,0.31,0.48,0.37,1,0.22   L38.58,40.8z M40.74,43.62c0.38-0.3,0.5-0.72,0.28-1.08c-0.2-0.33-0.52-0.39-1.08-0.21L40.74,43.62z"/>
	<path d="M44.73,42.02c-0.61,0.38-0.92,0.3-1.3-0.31l-0.35-0.56c-0.24-0.38-0.6-0.47-1.15-0.05l-0.28-0.45   c0.62-0.3,0.71-0.66,0.47-1.05l-0.35-0.56c-0.38-0.62-0.31-0.93,0.3-1.3l0.34-0.21l0.21,0.34l-0.27,0.17   c-0.37,0.23-0.39,0.36-0.12,0.8l0.41,0.66c0.22,0.35,0.1,0.74-0.4,1.07l0.02,0.04c0.51-0.3,0.92-0.23,1.13,0.11l0.41,0.66   c0.27,0.43,0.39,0.48,0.77,0.24l0.27-0.17l0.21,0.34L44.73,42.02z"/>
	<path d="M46.36,38.34l1.39-0.08l0.02,0.43l-1.41,0.01l0.77,1.17l-0.35,0.22l-0.71-1.21l-0.63,1.26l-0.38-0.21l0.69-1.21l-1.39,0.08   l-0.02-0.43l1.41,0l-0.77-1.17l0.35-0.22l0.71,1.21l0.63-1.26l0.38,0.21L46.36,38.34z"/>
	<path d="M48.11,37.54c-0.01-0.01-0.03-0.04-0.04-0.06c-0.3-0.49-0.22-0.99,0.2-1.25c0.24-0.15,0.47-0.17,0.83-0.09   c0.28,0.08,0.43,0.08,0.55,0c0.19-0.12,0.21-0.35,0.05-0.65l0.39-0.24l0.03,0.05c0.3,0.49,0.23,0.98-0.19,1.24   c-0.24,0.15-0.48,0.18-0.83,0.09c-0.29-0.08-0.43-0.08-0.54-0.01c-0.21,0.13-0.23,0.35-0.06,0.66L48.11,37.54z"/>
	<path d="M51.26,35.59c-0.01-0.01-0.03-0.04-0.04-0.06c-0.3-0.49-0.22-0.99,0.2-1.25c0.24-0.15,0.47-0.17,0.83-0.09   c0.28,0.08,0.43,0.08,0.55,0c0.19-0.12,0.21-0.35,0.05-0.65l0.39-0.24l0.03,0.05c0.3,0.49,0.23,0.98-0.19,1.24   c-0.24,0.15-0.48,0.18-0.83,0.09c-0.29-0.08-0.43-0.08-0.54-0.01c-0.21,0.13-0.23,0.35-0.06,0.66L51.26,35.59z"/>
	<path d="M55.74,35.2l-0.21-0.34l0.27-0.17c0.37-0.23,0.39-0.36,0.12-0.8l-0.41-0.66c-0.22-0.35-0.1-0.74,0.4-1.07l-0.02-0.04   c-0.51,0.3-0.92,0.23-1.13-0.12l-0.41-0.66c-0.27-0.43-0.39-0.48-0.77-0.24l-0.27,0.17l-0.21-0.34l0.34-0.21   c0.61-0.38,0.92-0.3,1.3,0.31l0.35,0.56c0.24,0.39,0.6,0.47,1.15,0.05l0.28,0.45c-0.62,0.3-0.7,0.66-0.47,1.05l0.35,0.56   c0.38,0.62,0.31,0.93-0.3,1.3L55.74,35.2z"/>
	<path d="M56.87,30.29l0.41-0.25l0.29,0.48l0.03-0.02c-0.06-0.43,0.13-0.81,0.54-1.06c0.59-0.36,1.12-0.21,1.53,0.44l1.09,1.75   l-0.42,0.26l-1.02-1.65c-0.3-0.49-0.64-0.59-1.06-0.33c-0.45,0.28-0.55,0.77-0.27,1.23l0.99,1.59l-0.42,0.26L56.87,30.29z"/>
	<path d="M60.64,26.95l0.45,0.73l1.1-0.68l0.22,0.36l-1.09,0.68l0.94,1.52c0.18,0.29,0.49,0.33,0.87,0.09   c0.15-0.09,0.42-0.27,0.49-0.32l0.22,0.36c-0.06,0.05-0.38,0.27-0.51,0.35c-0.67,0.42-1.14,0.35-1.49-0.21L60.9,28.3l-0.72,0.45   l-0.22-0.36l0.72-0.45l-0.45-0.73L60.64,26.95z"/>
	<path d="M64.11,26.31l-0.72,0.45l-0.22-0.36l0.72-0.45l-0.17-0.27c-0.32-0.52-0.15-0.97,0.51-1.38c0.16-0.1,0.54-0.32,0.64-0.36   l0.21,0.35c-0.12,0.06-0.48,0.27-0.63,0.36c-0.38,0.23-0.49,0.5-0.32,0.77l0.17,0.28l1.19-0.74l0.22,0.36l-1.19,0.74l1.45,2.33   l-0.42,0.26L64.11,26.31z"/>
	<path d="M65.91,24.79l-0.16-0.26c-0.29-0.46-0.2-0.92,0.21-1.18c0.42-0.26,0.87-0.13,1.16,0.33l0.16,0.26   c0.29,0.47,0.21,0.93-0.21,1.19C66.64,25.39,66.2,25.26,65.91,24.79z M68.7,22.26l-1.16,5.16l-0.24-0.39l1.16-5.16L68.7,22.26z    M66.92,24.1l-0.1-0.16c-0.2-0.33-0.43-0.42-0.67-0.28c-0.23,0.15-0.25,0.39-0.05,0.72l0.1,0.16c0.2,0.33,0.43,0.42,0.67,0.28   C67.11,24.67,67.12,24.43,66.92,24.1z M68.87,25.6l-0.16-0.26c-0.29-0.46-0.21-0.92,0.21-1.18c0.42-0.26,0.87-0.13,1.16,0.33   l0.16,0.26c0.29,0.47,0.21,0.93-0.21,1.19C69.61,26.2,69.16,26.06,68.87,25.6z M69.88,24.9l-0.1-0.16   c-0.2-0.33-0.43-0.42-0.67-0.28c-0.24,0.15-0.25,0.39-0.05,0.72l0.1,0.16c0.2,0.33,0.43,0.42,0.67,0.28   C70.07,25.48,70.09,25.23,69.88,24.9z"/>
	<path d="M70.56,21.73c0.56-0.35,1.12-0.3,1.45,0.12L71.6,22.1c-0.2-0.21-0.51-0.21-0.83-0.01c-0.34,0.21-0.47,0.51-0.31,0.76   c0.13,0.21,0.34,0.24,0.73,0.1l0.43-0.15c0.6-0.21,0.98-0.13,1.22,0.27c0.31,0.5,0.09,1.08-0.55,1.48   c-0.61,0.38-1.2,0.35-1.53-0.09l0.43-0.27c0.22,0.21,0.55,0.21,0.89-0.01c0.37-0.23,0.5-0.54,0.34-0.8   c-0.13-0.21-0.34-0.25-0.73-0.11l-0.46,0.16c-0.56,0.19-0.95,0.09-1.19-0.29C69.76,22.66,69.97,22.1,70.56,21.73z"/>
</g></svg>